<svg width="184" height="184" viewBox="0 0 184 184" fill="none" xmlns="http://www.w3.org/2000/svg">
<g clip-path="url(#clip0_568_12463)">
<g filter="url(#filter0_i_568_12463)">
<path d="M151.601 59.6014L124.399 32.399C106.506 14.5055 77.4945 14.5055 59.601 32.399L32.3986 59.6014C14.5051 77.4949 14.5051 112.256 32.3986 130.149L59.601 157.352C77.4945 175.245 106.506 175.245 124.399 157.352L151.601 130.149C169.495 112.256 169.495 77.4949 151.601 59.6014Z" fill="#10498D"/>
<path d="M151.601 59.6014L124.399 32.399C106.506 14.5055 77.4945 14.5055 59.601 32.399L32.3986 59.6014C14.5051 77.4949 14.5051 106.506 32.3986 124.399L59.601 151.602C77.4945 169.495 106.506 169.495 124.399 151.602L151.601 124.399C169.495 106.506 169.495 77.4949 151.601 59.6014Z" fill="url(#paint0_linear_568_12463)"/>
<path d="M151.601 59.6014L124.399 32.399C106.506 14.5055 77.4945 14.5055 59.601 32.399L32.3986 59.6014C14.5051 77.4949 14.5051 106.506 32.3986 124.399L59.601 151.602C77.4945 169.495 106.506 169.495 124.399 151.602L151.601 124.399C169.495 106.506 169.495 77.4949 151.601 59.6014Z" fill="url(#paint1_radial_568_12463)"/>
<path d="M151.601 59.6014L124.399 32.399C106.506 14.5055 77.4945 14.5055 59.601 32.399L32.3986 59.6014C14.5051 77.4949 14.5051 106.506 32.3986 124.399L59.601 151.602C77.4945 169.495 106.506 169.495 124.399 151.602L151.601 124.399C169.495 106.506 169.495 77.4949 151.601 59.6014Z" fill="url(#paint2_radial_568_12463)"/>
</g>
<g filter="url(#filter1_d_568_12463)">
<path fill-rule="evenodd" clip-rule="evenodd" d="M62.2443 52.0429C60.539 50.3361 57.7741 50.3361 56.0688 52.0429C54.3634 53.7498 54.3634 56.5173 56.0688 58.2242L57.4156 59.5721L45.7452 71.2531C45.3687 71.63 45.3687 72.241 45.7452 72.6179L50.5572 77.4343C50.9338 77.8111 51.5442 77.8111 51.9208 77.4343L63.5912 65.7532L69.7668 71.9344L64.272 77.4342C63.8954 77.8111 63.8954 78.4221 64.272 78.799L69.0839 83.6155C69.4605 83.9923 70.071 83.9923 70.4474 83.6155L75.9423 78.1155L85.8243 88.0064L68.0148 105.832L64.9736 102.788C64.9582 102.772 64.9427 102.757 64.9272 102.741C59.8112 97.6206 51.5165 97.6206 46.4006 102.741C41.2846 107.862 41.2846 116.164 46.4006 121.284C48.773 123.66 51.829 124.933 54.9346 125.106C55.1066 128.214 56.3789 131.273 58.7515 133.647C63.8674 138.768 72.1621 138.768 77.2781 133.647C82.394 128.526 82.394 120.224 77.2781 115.104L77.278 115.104L74.1903 112.013L91.9999 94.1875L109.81 112.013L106.722 115.104V115.104C101.606 120.224 101.606 128.526 106.722 133.647C111.838 138.768 120.132 138.768 125.249 133.647C127.621 131.273 128.893 128.214 129.065 125.106C132.171 124.933 135.227 123.66 137.6 121.284C142.716 116.164 142.716 107.862 137.6 102.741C132.484 97.6206 124.189 97.6206 119.073 102.741C119.06 102.754 119.048 102.766 119.036 102.778L119.026 102.788L115.985 105.832L98.1756 88.0064L108.058 78.1155L113.552 83.6155C113.929 83.9923 114.539 83.9923 114.916 83.6155L119.728 78.799C120.104 78.4221 120.104 77.8111 119.728 77.4342L114.233 71.9344L120.409 65.7532L120.41 65.7543L117.322 68.8449C119.027 67.1381 121.792 67.1381 123.497 68.8449L132.078 77.4343C132.456 77.8111 133.066 77.8111 133.442 77.4343L138.254 72.6179C138.631 72.241 138.631 71.63 138.254 71.2531L126.584 59.5721L127.931 58.2242C129.637 56.5173 129.637 53.7498 127.931 52.0429C126.226 50.3361 123.461 50.3361 121.756 52.0429L91.9999 81.8251L62.2443 52.0429ZM125.249 115.104L125.235 115.09L125.218 115.073L122.161 112.013L125.229 108.942C125.236 108.935 125.242 108.929 125.248 108.923C126.954 107.216 129.719 107.216 131.424 108.923C133.129 110.629 133.129 113.397 131.424 115.104C129.726 116.803 126.978 116.811 125.271 115.126C125.263 115.119 125.256 115.111 125.249 115.104ZM119.073 127.466C120.771 125.768 120.778 123.017 119.097 121.309L119.088 121.3L119.073 121.284C119.057 121.269 119.041 121.253 119.025 121.236L115.985 118.194L112.897 121.284C111.192 122.992 111.192 125.759 112.897 127.466C114.603 129.173 117.368 129.173 119.073 127.466ZM63.5901 65.7543L60.5024 68.8449C62.2077 67.1381 64.9726 67.1381 66.6779 68.8449L63.5901 65.7543ZM72.8534 81.2074L75.9412 78.1169L79.029 81.2074C77.3237 79.5005 74.5588 79.5005 72.8534 81.2074ZM58.7515 115.104L58.765 115.09L58.7821 115.073L61.8393 112.013L58.7709 108.942C58.7677 108.939 58.7646 108.936 58.7615 108.932C58.7582 108.929 58.755 108.926 58.7517 108.923C57.0463 107.216 54.2815 107.216 52.5761 108.923C50.8708 110.629 50.8708 113.397 52.5761 115.104C54.2739 116.803 57.0219 116.811 58.7289 115.126C58.7364 115.119 58.7439 115.111 58.7515 115.104ZM64.9269 127.466C63.2297 125.768 63.2217 123.017 64.903 121.309L64.9116 121.3L64.9272 121.284C64.9432 121.269 64.9592 121.253 64.9752 121.236L68.0148 118.194L71.1025 121.284C72.8078 122.992 72.8078 125.759 71.1025 127.466C69.3972 129.173 66.6324 129.173 64.9269 127.466ZM111.146 81.2074L108.059 78.1169L104.971 81.2074C106.676 79.5005 109.441 79.5005 111.146 81.2074Z" fill="url(#paint3_linear_568_12463)"/>
</g>
</g>
<defs>
<filter id="filter0_i_568_12463" x="18.9785" y="18.9789" width="166.043" height="171.793" filterUnits="userSpaceOnUse" color-interpolation-filters="sRGB">
<feFlood flood-opacity="0" result="BackgroundImageFix"/>
<feBlend mode="normal" in="SourceGraphic" in2="BackgroundImageFix" result="shape"/>
<feColorMatrix in="SourceAlpha" type="matrix" values="0 0 0 0 0 0 0 0 0 0 0 0 0 0 0 0 0 0 127 0" result="hardAlpha"/>
<feOffset dx="20" dy="20"/>
<feGaussianBlur stdDeviation="20"/>
<feComposite in2="hardAlpha" operator="arithmetic" k2="-1" k3="1"/>
<feColorMatrix type="matrix" values="0 0 0 0 1 0 0 0 0 1 0 0 0 0 1 0 0 0 0.05 0"/>
<feBlend mode="normal" in2="shape" result="effect1_innerShadow_568_12463"/>
</filter>
<filter id="filter1_d_568_12463" x="40.5636" y="50.7628" width="102.873" height="90.7251" filterUnits="userSpaceOnUse" color-interpolation-filters="sRGB">
<feFlood flood-opacity="0" result="BackgroundImageFix"/>
<feColorMatrix in="SourceAlpha" type="matrix" values="0 0 0 0 0 0 0 0 0 0 0 0 0 0 0 0 0 0 127 0" result="hardAlpha"/>
<feOffset dy="2"/>
<feGaussianBlur stdDeviation="1"/>
<feComposite in2="hardAlpha" operator="out"/>
<feColorMatrix type="matrix" values="0 0 0 0 0 0 0 0 0 0 0 0 0 0 0 0 0 0 0.25 0"/>
<feBlend mode="normal" in2="BackgroundImageFix" result="effect1_dropShadow_568_12463"/>
<feBlend mode="normal" in="SourceGraphic" in2="effect1_dropShadow_568_12463" result="shape"/>
</filter>
<linearGradient id="paint0_linear_568_12463" x1="94.081" y1="-2.08096" x2="45.9994" y2="138" gradientUnits="userSpaceOnUse">
<stop stop-color="#2589FE"/>
<stop offset="1" stop-color="#0385FF"/>
</linearGradient>
<radialGradient id="paint1_radial_568_12463" cx="0" cy="0" r="1" gradientUnits="userSpaceOnUse" gradientTransform="translate(91.9998 91.9998) rotate(90) scale(63.1601)">
<stop stop-color="#0474FB"/>
<stop offset="1" stop-color="#0474FB" stop-opacity="0"/>
</radialGradient>
<radialGradient id="paint2_radial_568_12463" cx="0" cy="0" r="1" gradientUnits="userSpaceOnUse" gradientTransform="translate(139.797 -167.648) rotate(100.091) scale(261.766)">
<stop stop-color="#02C4FB"/>
<stop offset="1" stop-color="#03C3FB" stop-opacity="0"/>
</radialGradient>
<linearGradient id="paint3_linear_568_12463" x1="42.5636" y1="50.7628" x2="70.3846" y2="143.086" gradientUnits="userSpaceOnUse">
<stop stop-color="#DAF1FF"/>
<stop offset="1" stop-color="white"/>
</linearGradient>
<clipPath id="clip0_568_12463">
<rect width="184" height="184" fill="white"/>
</clipPath>
</defs>
</svg>
